<mxfile host="app.diagrams.net" modified="2023-06-07T00:46:29.410Z" agent="Mozilla/5.0 (Windows NT 10.0; Win64; x64; rv:109.0) Gecko/20100101 Firefox/113.0" etag="7M7CMSbGjgPtloJAvr7f" version="21.3.7" type="device">
  <diagram name="DFD" id="g9Z64mqkz2EZNUmYFqdV">
    <mxGraphModel dx="3447" dy="1287" grid="1" gridSize="10" guides="1" tooltips="1" connect="1" arrows="1" fold="1" page="1" pageScale="1" pageWidth="850" pageHeight="1100" math="0" shadow="0">
      <root>
        <mxCell id="0" />
        <mxCell id="1" parent="0" />
        <mxCell id="0M9UcQBWbqOTrujKgAg9-1" value="Customer" style="html=1;dashed=0;whiteSpace=wrap;" vertex="1" parent="1">
          <mxGeometry x="40" y="120" width="100" height="200" as="geometry" />
        </mxCell>
        <mxCell id="0M9UcQBWbqOTrujKgAg9-2" value="&lt;div&gt;0&lt;/div&gt;&lt;div&gt;&lt;br&gt;&lt;/div&gt;&lt;div&gt;Sistem X&lt;/div&gt;&lt;div&gt;Marketplace&lt;br&gt;&lt;/div&gt;" style="shape=ellipse;html=1;dashed=0;whiteSpace=wrap;perimeter=ellipsePerimeter;" vertex="1" parent="1">
          <mxGeometry x="335" y="140" width="180" height="180" as="geometry" />
        </mxCell>
        <mxCell id="0M9UcQBWbqOTrujKgAg9-3" value="Admin" style="html=1;dashed=0;whiteSpace=wrap;" vertex="1" parent="1">
          <mxGeometry x="710" y="120" width="100" height="200" as="geometry" />
        </mxCell>
        <mxCell id="0M9UcQBWbqOTrujKgAg9-7" value="" style="endArrow=classic;html=1;rounded=0;exitX=0.5;exitY=0;exitDx=0;exitDy=0;entryX=0.5;entryY=0;entryDx=0;entryDy=0;" edge="1" parent="1" source="0M9UcQBWbqOTrujKgAg9-1" target="0M9UcQBWbqOTrujKgAg9-2">
          <mxGeometry relative="1" as="geometry">
            <mxPoint x="300" y="200" as="sourcePoint" />
            <mxPoint x="400" y="200" as="targetPoint" />
            <Array as="points">
              <mxPoint x="90" y="90" />
              <mxPoint x="250" y="90" />
              <mxPoint x="425" y="90" />
            </Array>
          </mxGeometry>
        </mxCell>
        <mxCell id="0M9UcQBWbqOTrujKgAg9-8" value="Data Customer" style="edgeLabel;resizable=0;html=1;align=center;verticalAlign=middle;" connectable="0" vertex="1" parent="0M9UcQBWbqOTrujKgAg9-7">
          <mxGeometry relative="1" as="geometry">
            <mxPoint x="-8" y="-10" as="offset" />
          </mxGeometry>
        </mxCell>
        <mxCell id="0M9UcQBWbqOTrujKgAg9-9" value="" style="endArrow=classic;html=1;rounded=0;exitX=0.251;exitY=0.066;exitDx=0;exitDy=0;exitPerimeter=0;entryX=1;entryY=0.097;entryDx=0;entryDy=0;entryPerimeter=0;" edge="1" parent="1" source="0M9UcQBWbqOTrujKgAg9-2" target="0M9UcQBWbqOTrujKgAg9-1">
          <mxGeometry relative="1" as="geometry">
            <mxPoint x="190" y="180" as="sourcePoint" />
            <mxPoint x="150" y="150" as="targetPoint" />
            <Array as="points">
              <mxPoint x="380" y="140" />
            </Array>
          </mxGeometry>
        </mxCell>
        <mxCell id="0M9UcQBWbqOTrujKgAg9-10" value="Produk Best Seller" style="edgeLabel;resizable=0;html=1;align=center;verticalAlign=middle;" connectable="0" vertex="1" parent="0M9UcQBWbqOTrujKgAg9-9">
          <mxGeometry relative="1" as="geometry">
            <mxPoint x="-6" y="-12" as="offset" />
          </mxGeometry>
        </mxCell>
        <mxCell id="0M9UcQBWbqOTrujKgAg9-11" value="" style="endArrow=classic;html=1;rounded=0;exitX=1;exitY=0.3;exitDx=0;exitDy=0;exitPerimeter=0;entryX=0.084;entryY=0.221;entryDx=0;entryDy=0;entryPerimeter=0;" edge="1" parent="1" source="0M9UcQBWbqOTrujKgAg9-1" target="0M9UcQBWbqOTrujKgAg9-2">
          <mxGeometry relative="1" as="geometry">
            <mxPoint x="150" y="190" as="sourcePoint" />
            <mxPoint x="340" y="180" as="targetPoint" />
          </mxGeometry>
        </mxCell>
        <mxCell id="0M9UcQBWbqOTrujKgAg9-12" value="Keyword Pencarian Produk" style="edgeLabel;resizable=0;html=1;align=center;verticalAlign=middle;" connectable="0" vertex="1" parent="0M9UcQBWbqOTrujKgAg9-11">
          <mxGeometry relative="1" as="geometry">
            <mxPoint y="-10" as="offset" />
          </mxGeometry>
        </mxCell>
        <mxCell id="0M9UcQBWbqOTrujKgAg9-13" value="" style="endArrow=classic;html=1;rounded=0;exitX=0.016;exitY=0.388;exitDx=0;exitDy=0;exitPerimeter=0;entryX=1.001;entryY=0.45;entryDx=0;entryDy=0;entryPerimeter=0;" edge="1" parent="1" source="0M9UcQBWbqOTrujKgAg9-2" target="0M9UcQBWbqOTrujKgAg9-1">
          <mxGeometry relative="1" as="geometry">
            <mxPoint x="350" y="205" as="sourcePoint" />
            <mxPoint x="140" y="200" as="targetPoint" />
          </mxGeometry>
        </mxCell>
        <mxCell id="0M9UcQBWbqOTrujKgAg9-14" value="Hasil Pencarian Produk" style="edgeLabel;resizable=0;html=1;align=center;verticalAlign=middle;" connectable="0" vertex="1" parent="0M9UcQBWbqOTrujKgAg9-13">
          <mxGeometry relative="1" as="geometry">
            <mxPoint y="-10" as="offset" />
          </mxGeometry>
        </mxCell>
        <mxCell id="0M9UcQBWbqOTrujKgAg9-15" value="" style="endArrow=classic;html=1;rounded=0;exitX=0.003;exitY=0.557;exitDx=0;exitDy=0;entryX=0.999;entryY=0.6;entryDx=0;entryDy=0;entryPerimeter=0;exitPerimeter=0;" edge="1" parent="1" source="0M9UcQBWbqOTrujKgAg9-2" target="0M9UcQBWbqOTrujKgAg9-1">
          <mxGeometry relative="1" as="geometry">
            <mxPoint x="210" y="220" as="sourcePoint" />
            <mxPoint x="150" y="240" as="targetPoint" />
          </mxGeometry>
        </mxCell>
        <mxCell id="0M9UcQBWbqOTrujKgAg9-16" value="Detail Produk" style="edgeLabel;resizable=0;html=1;align=center;verticalAlign=middle;" connectable="0" vertex="1" parent="0M9UcQBWbqOTrujKgAg9-15">
          <mxGeometry relative="1" as="geometry">
            <mxPoint y="-9" as="offset" />
          </mxGeometry>
        </mxCell>
        <mxCell id="0M9UcQBWbqOTrujKgAg9-17" value="" style="endArrow=classic;html=1;rounded=0;entryX=0.052;entryY=0.722;entryDx=0;entryDy=0;entryPerimeter=0;exitX=1;exitY=0.75;exitDx=0;exitDy=0;" edge="1" parent="1" source="0M9UcQBWbqOTrujKgAg9-1" target="0M9UcQBWbqOTrujKgAg9-2">
          <mxGeometry relative="1" as="geometry">
            <mxPoint x="160" y="260" as="sourcePoint" />
            <mxPoint x="340" y="280" as="targetPoint" />
          </mxGeometry>
        </mxCell>
        <mxCell id="0M9UcQBWbqOTrujKgAg9-18" value="Pembelian Produk" style="edgeLabel;resizable=0;html=1;align=center;verticalAlign=middle;" connectable="0" vertex="1" parent="0M9UcQBWbqOTrujKgAg9-17">
          <mxGeometry relative="1" as="geometry">
            <mxPoint y="-10" as="offset" />
          </mxGeometry>
        </mxCell>
        <mxCell id="0M9UcQBWbqOTrujKgAg9-20" value="" style="endArrow=classic;html=1;rounded=0;exitX=0.997;exitY=0.946;exitDx=0;exitDy=0;exitPerimeter=0;entryX=0.136;entryY=0.838;entryDx=0;entryDy=0;entryPerimeter=0;" edge="1" parent="1" source="0M9UcQBWbqOTrujKgAg9-1" target="0M9UcQBWbqOTrujKgAg9-2">
          <mxGeometry relative="1" as="geometry">
            <mxPoint x="220" y="220" as="sourcePoint" />
            <mxPoint x="380" y="220" as="targetPoint" />
            <Array as="points">
              <mxPoint x="360" y="310" />
            </Array>
          </mxGeometry>
        </mxCell>
        <mxCell id="0M9UcQBWbqOTrujKgAg9-21" value="Transaksi Pembelian" style="edgeLabel;resizable=0;html=1;align=center;verticalAlign=middle;" connectable="0" vertex="1" parent="0M9UcQBWbqOTrujKgAg9-20">
          <mxGeometry relative="1" as="geometry">
            <mxPoint x="-10" y="-10" as="offset" />
          </mxGeometry>
        </mxCell>
        <mxCell id="0M9UcQBWbqOTrujKgAg9-23" value="" style="endArrow=classic;html=1;rounded=0;exitX=0.5;exitY=1;exitDx=0;exitDy=0;entryX=0.5;entryY=1;entryDx=0;entryDy=0;" edge="1" parent="1" source="0M9UcQBWbqOTrujKgAg9-2" target="0M9UcQBWbqOTrujKgAg9-1">
          <mxGeometry relative="1" as="geometry">
            <mxPoint x="170" y="260" as="sourcePoint" />
            <mxPoint x="270" y="260" as="targetPoint" />
            <Array as="points">
              <mxPoint x="425" y="350" />
              <mxPoint x="90" y="350" />
            </Array>
          </mxGeometry>
        </mxCell>
        <mxCell id="0M9UcQBWbqOTrujKgAg9-24" value="Detail Transaksi" style="edgeLabel;resizable=0;html=1;align=center;verticalAlign=middle;" connectable="0" vertex="1" parent="0M9UcQBWbqOTrujKgAg9-23">
          <mxGeometry relative="1" as="geometry">
            <mxPoint x="-8" y="-10" as="offset" />
          </mxGeometry>
        </mxCell>
        <mxCell id="0M9UcQBWbqOTrujKgAg9-29" value="" style="endArrow=classic;html=1;rounded=0;exitX=0.996;exitY=0.447;exitDx=0;exitDy=0;exitPerimeter=0;entryX=0;entryY=0.5;entryDx=0;entryDy=0;" edge="1" parent="1" source="0M9UcQBWbqOTrujKgAg9-2" target="0M9UcQBWbqOTrujKgAg9-3">
          <mxGeometry relative="1" as="geometry">
            <mxPoint x="370" y="190" as="sourcePoint" />
            <mxPoint x="660" y="280" as="targetPoint" />
          </mxGeometry>
        </mxCell>
        <mxCell id="0M9UcQBWbqOTrujKgAg9-30" value="Informasi Pembelian" style="edgeLabel;resizable=0;html=1;align=center;verticalAlign=middle;" connectable="0" vertex="1" parent="0M9UcQBWbqOTrujKgAg9-29">
          <mxGeometry relative="1" as="geometry">
            <mxPoint y="-10" as="offset" />
          </mxGeometry>
        </mxCell>
        <mxCell id="0M9UcQBWbqOTrujKgAg9-31" value="" style="endArrow=classic;html=1;rounded=0;entryX=0.871;entryY=0.167;entryDx=0;entryDy=0;exitX=0;exitY=0.25;exitDx=0;exitDy=0;entryPerimeter=0;" edge="1" parent="1" source="0M9UcQBWbqOTrujKgAg9-3" target="0M9UcQBWbqOTrujKgAg9-2">
          <mxGeometry relative="1" as="geometry">
            <mxPoint x="540" y="250" as="sourcePoint" />
            <mxPoint x="640" y="250" as="targetPoint" />
          </mxGeometry>
        </mxCell>
        <mxCell id="0M9UcQBWbqOTrujKgAg9-32" value="Detail Produk" style="edgeLabel;resizable=0;html=1;align=center;verticalAlign=middle;" connectable="0" vertex="1" parent="0M9UcQBWbqOTrujKgAg9-31">
          <mxGeometry relative="1" as="geometry">
            <mxPoint y="-10" as="offset" />
          </mxGeometry>
        </mxCell>
        <mxCell id="0M9UcQBWbqOTrujKgAg9-33" value="" style="endArrow=classic;html=1;rounded=0;entryX=0;entryY=0.75;entryDx=0;entryDy=0;exitX=0.947;exitY=0.721;exitDx=0;exitDy=0;exitPerimeter=0;" edge="1" parent="1" source="0M9UcQBWbqOTrujKgAg9-2" target="0M9UcQBWbqOTrujKgAg9-3">
          <mxGeometry relative="1" as="geometry">
            <mxPoint x="520" y="270" as="sourcePoint" />
            <mxPoint x="500" y="210" as="targetPoint" />
          </mxGeometry>
        </mxCell>
        <mxCell id="0M9UcQBWbqOTrujKgAg9-34" value="Detail Transaksi" style="edgeLabel;resizable=0;html=1;align=center;verticalAlign=middle;" connectable="0" vertex="1" parent="0M9UcQBWbqOTrujKgAg9-33">
          <mxGeometry relative="1" as="geometry">
            <mxPoint y="-10" as="offset" />
          </mxGeometry>
        </mxCell>
        <mxCell id="0M9UcQBWbqOTrujKgAg9-37" value="Oktaviana Sadama Nur Azizah 24060121130060" style="text;html=1;strokeColor=none;fillColor=none;align=center;verticalAlign=middle;whiteSpace=wrap;rounded=0;" vertex="1" parent="1">
          <mxGeometry x="470" y="90" width="210" height="30" as="geometry" />
        </mxCell>
        <mxCell id="0M9UcQBWbqOTrujKgAg9-38" value="&lt;div&gt;0&lt;/div&gt;&lt;div&gt;&lt;br&gt;&lt;/div&gt;&lt;div&gt;Sistem X&lt;/div&gt;&lt;div&gt;Marketplace&lt;br&gt;&lt;/div&gt;" style="shape=ellipse;html=1;dashed=0;whiteSpace=wrap;perimeter=ellipsePerimeter;" vertex="1" parent="1">
          <mxGeometry x="375" y="470" width="100" height="100" as="geometry" />
        </mxCell>
        <mxCell id="0M9UcQBWbqOTrujKgAg9-39" value="&lt;div&gt;3&lt;/div&gt;&lt;div&gt;&lt;br&gt;&lt;/div&gt;&lt;div&gt;Menampilkan Detail Produk&lt;br&gt;&lt;/div&gt;" style="shape=ellipse;html=1;dashed=0;whiteSpace=wrap;perimeter=ellipsePerimeter;" vertex="1" parent="1">
          <mxGeometry x="375" y="660" width="100" height="100" as="geometry" />
        </mxCell>
        <mxCell id="0M9UcQBWbqOTrujKgAg9-40" value="&lt;div&gt;4&lt;/div&gt;&lt;div&gt;&lt;br&gt;&lt;/div&gt;&lt;div&gt;Mencatat Pembelian&lt;br&gt;&lt;/div&gt;" style="shape=ellipse;html=1;dashed=0;whiteSpace=wrap;perimeter=ellipsePerimeter;" vertex="1" parent="1">
          <mxGeometry x="550" y="660" width="100" height="100" as="geometry" />
        </mxCell>
        <mxCell id="0M9UcQBWbqOTrujKgAg9-41" value="&lt;div&gt;5&lt;/div&gt;&lt;div&gt;&lt;br&gt;&lt;/div&gt;&lt;div&gt;Mengolah Data Transaksi Pembelian&lt;br&gt;&lt;/div&gt;" style="shape=ellipse;html=1;dashed=0;whiteSpace=wrap;perimeter=ellipsePerimeter;" vertex="1" parent="1">
          <mxGeometry x="720" y="660" width="100" height="100" as="geometry" />
        </mxCell>
        <mxCell id="0M9UcQBWbqOTrujKgAg9-42" value="&lt;div&gt;1&lt;/div&gt;&lt;div&gt;&lt;br&gt;&lt;/div&gt;&lt;div&gt;Menampilkan Produk Best Seller&lt;br&gt;&lt;/div&gt;" style="shape=ellipse;html=1;dashed=0;whiteSpace=wrap;perimeter=ellipsePerimeter;" vertex="1" parent="1">
          <mxGeometry x="20" y="660" width="100" height="100" as="geometry" />
        </mxCell>
        <mxCell id="0M9UcQBWbqOTrujKgAg9-43" value="&lt;div&gt;2&lt;/div&gt;&lt;div&gt;&lt;br&gt;&lt;/div&gt;&lt;div&gt;Mencari Produk&lt;br&gt;&lt;/div&gt;" style="shape=ellipse;html=1;dashed=0;whiteSpace=wrap;perimeter=ellipsePerimeter;" vertex="1" parent="1">
          <mxGeometry x="190" y="660" width="100" height="100" as="geometry" />
        </mxCell>
        <mxCell id="0M9UcQBWbqOTrujKgAg9-44" value="" style="endArrow=none;html=1;rounded=0;entryX=0.5;entryY=1;entryDx=0;entryDy=0;exitX=0.5;exitY=0;exitDx=0;exitDy=0;" edge="1" parent="1" source="0M9UcQBWbqOTrujKgAg9-39" target="0M9UcQBWbqOTrujKgAg9-38">
          <mxGeometry width="50" height="50" relative="1" as="geometry">
            <mxPoint x="560" y="690" as="sourcePoint" />
            <mxPoint x="610" y="640" as="targetPoint" />
          </mxGeometry>
        </mxCell>
        <mxCell id="0M9UcQBWbqOTrujKgAg9-45" value="" style="endArrow=none;html=1;rounded=0;exitX=0.5;exitY=0;exitDx=0;exitDy=0;entryX=0.5;entryY=0;entryDx=0;entryDy=0;" edge="1" parent="1" source="0M9UcQBWbqOTrujKgAg9-42" target="0M9UcQBWbqOTrujKgAg9-41">
          <mxGeometry width="50" height="50" relative="1" as="geometry">
            <mxPoint x="560" y="690" as="sourcePoint" />
            <mxPoint x="780" y="600" as="targetPoint" />
            <Array as="points">
              <mxPoint x="70" y="620" />
              <mxPoint x="430" y="620" />
              <mxPoint x="770" y="620" />
            </Array>
          </mxGeometry>
        </mxCell>
        <mxCell id="0M9UcQBWbqOTrujKgAg9-47" value="" style="endArrow=none;html=1;rounded=0;exitX=0.5;exitY=0;exitDx=0;exitDy=0;entryX=0.5;entryY=0;entryDx=0;entryDy=0;" edge="1" parent="1" source="0M9UcQBWbqOTrujKgAg9-43" target="0M9UcQBWbqOTrujKgAg9-40">
          <mxGeometry width="50" height="50" relative="1" as="geometry">
            <mxPoint x="510" y="690" as="sourcePoint" />
            <mxPoint x="560" y="640" as="targetPoint" />
            <Array as="points">
              <mxPoint x="240" y="620" />
              <mxPoint x="430" y="620" />
              <mxPoint x="600" y="620" />
            </Array>
          </mxGeometry>
        </mxCell>
        <mxCell id="0M9UcQBWbqOTrujKgAg9-48" value="&lt;div&gt;4.2&lt;/div&gt;&lt;div&gt;&lt;br&gt;&lt;/div&gt;&lt;div&gt;Memeriksa Data Produk&lt;br&gt;&lt;/div&gt;" style="shape=ellipse;html=1;dashed=0;whiteSpace=wrap;perimeter=ellipsePerimeter;" vertex="1" parent="1">
          <mxGeometry x="550" y="840" width="100" height="100" as="geometry" />
        </mxCell>
        <mxCell id="0M9UcQBWbqOTrujKgAg9-49" value="&lt;div&gt;4.3&lt;/div&gt;&lt;div&gt;&lt;br&gt;&lt;/div&gt;&lt;div&gt;Mencatat Data Transakasi Pembelian&lt;br&gt;&lt;/div&gt;" style="shape=ellipse;html=1;dashed=0;whiteSpace=wrap;perimeter=ellipsePerimeter;" vertex="1" parent="1">
          <mxGeometry x="690" y="840" width="100" height="100" as="geometry" />
        </mxCell>
        <mxCell id="0M9UcQBWbqOTrujKgAg9-50" value="&lt;div&gt;4.1&lt;br&gt;&lt;/div&gt;&lt;div&gt;&lt;br&gt;&lt;/div&gt;Memeriksa Data Customer" style="shape=ellipse;html=1;dashed=0;whiteSpace=wrap;perimeter=ellipsePerimeter;" vertex="1" parent="1">
          <mxGeometry x="410" y="840" width="100" height="100" as="geometry" />
        </mxCell>
        <mxCell id="0M9UcQBWbqOTrujKgAg9-51" value="" style="endArrow=none;dashed=1;html=1;rounded=0;" edge="1" parent="1">
          <mxGeometry width="50" height="50" relative="1" as="geometry">
            <mxPoint x="20" y="590" as="sourcePoint" />
            <mxPoint x="1000" y="590" as="targetPoint" />
            <Array as="points">
              <mxPoint x="420" y="590" />
            </Array>
          </mxGeometry>
        </mxCell>
        <mxCell id="0M9UcQBWbqOTrujKgAg9-52" value="" style="endArrow=none;html=1;rounded=0;entryX=0.5;entryY=1;entryDx=0;entryDy=0;exitX=0.5;exitY=0;exitDx=0;exitDy=0;" edge="1" parent="1" source="0M9UcQBWbqOTrujKgAg9-48" target="0M9UcQBWbqOTrujKgAg9-40">
          <mxGeometry width="50" height="50" relative="1" as="geometry">
            <mxPoint x="400" y="700" as="sourcePoint" />
            <mxPoint x="450" y="650" as="targetPoint" />
          </mxGeometry>
        </mxCell>
        <mxCell id="0M9UcQBWbqOTrujKgAg9-53" value="" style="endArrow=none;html=1;rounded=0;exitX=0.5;exitY=0;exitDx=0;exitDy=0;entryX=0.5;entryY=0;entryDx=0;entryDy=0;" edge="1" parent="1" source="0M9UcQBWbqOTrujKgAg9-50" target="0M9UcQBWbqOTrujKgAg9-49">
          <mxGeometry width="50" height="50" relative="1" as="geometry">
            <mxPoint x="540" y="830" as="sourcePoint" />
            <mxPoint x="590" y="780" as="targetPoint" />
            <Array as="points">
              <mxPoint x="460" y="810" />
              <mxPoint x="740" y="810" />
            </Array>
          </mxGeometry>
        </mxCell>
        <mxCell id="0M9UcQBWbqOTrujKgAg9-54" value="" style="endArrow=none;dashed=1;html=1;rounded=0;" edge="1" parent="1">
          <mxGeometry width="50" height="50" relative="1" as="geometry">
            <mxPoint x="20" y="780" as="sourcePoint" />
            <mxPoint x="1000" y="780" as="targetPoint" />
          </mxGeometry>
        </mxCell>
        <mxCell id="0M9UcQBWbqOTrujKgAg9-55" value="Oktaviana Sadama Nur Azizah&lt;br&gt;24060121130060" style="text;html=1;strokeColor=none;fillColor=none;align=center;verticalAlign=middle;whiteSpace=wrap;rounded=0;" vertex="1" parent="1">
          <mxGeometry x="90" y="860" width="260" height="30" as="geometry" />
        </mxCell>
        <mxCell id="0M9UcQBWbqOTrujKgAg9-56" value="Level 1" style="text;strokeColor=none;fillColor=none;html=1;fontSize=24;fontStyle=1;verticalAlign=middle;align=center;" vertex="1" parent="1">
          <mxGeometry x="850" y="610" width="100" height="40" as="geometry" />
        </mxCell>
        <mxCell id="0M9UcQBWbqOTrujKgAg9-57" value="Level 2" style="text;strokeColor=none;fillColor=none;html=1;fontSize=24;fontStyle=1;verticalAlign=middle;align=center;" vertex="1" parent="1">
          <mxGeometry x="850" y="820" width="100" height="40" as="geometry" />
        </mxCell>
        <mxCell id="0M9UcQBWbqOTrujKgAg9-58" value="Customer" style="html=1;dashed=0;whiteSpace=wrap;" vertex="1" parent="1">
          <mxGeometry x="100" y="1570" width="140" height="40" as="geometry" />
        </mxCell>
        <mxCell id="0M9UcQBWbqOTrujKgAg9-60" value="Admin" style="html=1;dashed=0;whiteSpace=wrap;" vertex="1" parent="1">
          <mxGeometry x="760" y="1440" width="100" height="40" as="geometry" />
        </mxCell>
        <mxCell id="0M9UcQBWbqOTrujKgAg9-62" value="Produk" style="html=1;dashed=0;whiteSpace=wrap;shape=partialRectangle;right=0;left=0;" vertex="1" parent="1">
          <mxGeometry x="660" y="1570" width="100" height="40" as="geometry" />
        </mxCell>
        <mxCell id="0M9UcQBWbqOTrujKgAg9-65" value="" style="endArrow=classic;html=1;rounded=0;exitX=0.5;exitY=1;exitDx=0;exitDy=0;entryX=1;entryY=0.5;entryDx=0;entryDy=0;" edge="1" parent="1" source="0M9UcQBWbqOTrujKgAg9-60" target="0M9UcQBWbqOTrujKgAg9-62">
          <mxGeometry relative="1" as="geometry">
            <mxPoint x="800" y="1710" as="sourcePoint" />
            <mxPoint x="780" y="1750" as="targetPoint" />
            <Array as="points">
              <mxPoint x="810" y="1590" />
            </Array>
          </mxGeometry>
        </mxCell>
        <mxCell id="0M9UcQBWbqOTrujKgAg9-66" value="Detail Produk" style="edgeLabel;resizable=0;html=1;align=center;verticalAlign=middle;" connectable="0" vertex="1" parent="0M9UcQBWbqOTrujKgAg9-65">
          <mxGeometry relative="1" as="geometry">
            <mxPoint y="-20" as="offset" />
          </mxGeometry>
        </mxCell>
        <mxCell id="0M9UcQBWbqOTrujKgAg9-68" value="&lt;div&gt;1&lt;/div&gt;&lt;div&gt;&lt;br&gt;&lt;/div&gt;&lt;div&gt;Menampilkan Produk Best Seller&lt;br&gt;&lt;/div&gt;" style="shape=ellipse;html=1;dashed=0;whiteSpace=wrap;perimeter=ellipsePerimeter;" vertex="1" parent="1">
          <mxGeometry x="660" y="1710" width="100" height="100" as="geometry" />
        </mxCell>
        <mxCell id="0M9UcQBWbqOTrujKgAg9-69" value="" style="endArrow=classic;html=1;rounded=0;exitX=0.5;exitY=1;exitDx=0;exitDy=0;entryX=0.5;entryY=0;entryDx=0;entryDy=0;" edge="1" parent="1" source="0M9UcQBWbqOTrujKgAg9-62" target="0M9UcQBWbqOTrujKgAg9-68">
          <mxGeometry relative="1" as="geometry">
            <mxPoint x="610" y="1640" as="sourcePoint" />
            <mxPoint x="710" y="1720" as="targetPoint" />
          </mxGeometry>
        </mxCell>
        <mxCell id="0M9UcQBWbqOTrujKgAg9-70" value="Produk" style="edgeLabel;resizable=0;html=1;align=center;verticalAlign=middle;" connectable="0" vertex="1" parent="0M9UcQBWbqOTrujKgAg9-69">
          <mxGeometry relative="1" as="geometry" />
        </mxCell>
        <mxCell id="0M9UcQBWbqOTrujKgAg9-71" value="" style="endArrow=classic;html=1;rounded=0;exitX=0;exitY=0.5;exitDx=0;exitDy=0;entryX=0.75;entryY=1;entryDx=0;entryDy=0;" edge="1" parent="1" source="0M9UcQBWbqOTrujKgAg9-68" target="0M9UcQBWbqOTrujKgAg9-58">
          <mxGeometry relative="1" as="geometry">
            <mxPoint x="630" y="1640" as="sourcePoint" />
            <mxPoint x="730" y="1640" as="targetPoint" />
            <Array as="points">
              <mxPoint x="205" y="1760" />
            </Array>
          </mxGeometry>
        </mxCell>
        <mxCell id="0M9UcQBWbqOTrujKgAg9-72" value="Produk Best Seller" style="edgeLabel;resizable=0;html=1;align=center;verticalAlign=middle;" connectable="0" vertex="1" parent="0M9UcQBWbqOTrujKgAg9-71">
          <mxGeometry relative="1" as="geometry">
            <mxPoint x="118" y="-10" as="offset" />
          </mxGeometry>
        </mxCell>
        <mxCell id="0M9UcQBWbqOTrujKgAg9-74" value="&lt;div&gt;2&lt;/div&gt;&lt;div&gt;&lt;br&gt;&lt;/div&gt;&lt;div&gt;Mencari Produk&lt;br&gt;&lt;/div&gt;" style="shape=ellipse;html=1;dashed=0;whiteSpace=wrap;perimeter=ellipsePerimeter;" vertex="1" parent="1">
          <mxGeometry x="400" y="1550" width="100" height="100" as="geometry" />
        </mxCell>
        <mxCell id="0M9UcQBWbqOTrujKgAg9-75" value="" style="endArrow=classic;html=1;rounded=0;entryX=0.038;entryY=0.3;entryDx=0;entryDy=0;entryPerimeter=0;exitX=1;exitY=0.25;exitDx=0;exitDy=0;" edge="1" parent="1" source="0M9UcQBWbqOTrujKgAg9-58" target="0M9UcQBWbqOTrujKgAg9-74">
          <mxGeometry relative="1" as="geometry">
            <mxPoint x="270" y="1550" as="sourcePoint" />
            <mxPoint x="420" y="1610" as="targetPoint" />
          </mxGeometry>
        </mxCell>
        <mxCell id="0M9UcQBWbqOTrujKgAg9-76" value="Keyword Pencarian" style="edgeLabel;resizable=0;html=1;align=center;verticalAlign=middle;" connectable="0" vertex="1" parent="0M9UcQBWbqOTrujKgAg9-75">
          <mxGeometry relative="1" as="geometry">
            <mxPoint y="-10" as="offset" />
          </mxGeometry>
        </mxCell>
        <mxCell id="0M9UcQBWbqOTrujKgAg9-81" value="" style="endArrow=classic;html=1;rounded=0;entryX=1;entryY=0.75;entryDx=0;entryDy=0;exitX=0;exitY=0.5;exitDx=0;exitDy=0;" edge="1" parent="1" source="0M9UcQBWbqOTrujKgAg9-74" target="0M9UcQBWbqOTrujKgAg9-58">
          <mxGeometry relative="1" as="geometry">
            <mxPoint x="420" y="1610" as="sourcePoint" />
            <mxPoint x="650" y="1500" as="targetPoint" />
          </mxGeometry>
        </mxCell>
        <mxCell id="0M9UcQBWbqOTrujKgAg9-82" value="Hasil Pencarian" style="edgeLabel;resizable=0;html=1;align=center;verticalAlign=middle;" connectable="0" vertex="1" parent="0M9UcQBWbqOTrujKgAg9-81">
          <mxGeometry relative="1" as="geometry">
            <mxPoint y="10" as="offset" />
          </mxGeometry>
        </mxCell>
        <mxCell id="0M9UcQBWbqOTrujKgAg9-84" value="" style="endArrow=classic;html=1;rounded=0;entryX=0;entryY=0.25;entryDx=0;entryDy=0;exitX=0.95;exitY=0.291;exitDx=0;exitDy=0;exitPerimeter=0;" edge="1" parent="1" source="0M9UcQBWbqOTrujKgAg9-74" target="0M9UcQBWbqOTrujKgAg9-62">
          <mxGeometry relative="1" as="geometry">
            <mxPoint x="530" y="1580" as="sourcePoint" />
            <mxPoint x="580" y="1600" as="targetPoint" />
          </mxGeometry>
        </mxCell>
        <mxCell id="0M9UcQBWbqOTrujKgAg9-85" value="Produk" style="edgeLabel;resizable=0;html=1;align=center;verticalAlign=middle;" connectable="0" vertex="1" parent="0M9UcQBWbqOTrujKgAg9-84">
          <mxGeometry relative="1" as="geometry">
            <mxPoint y="-10" as="offset" />
          </mxGeometry>
        </mxCell>
        <mxCell id="0M9UcQBWbqOTrujKgAg9-86" value="" style="endArrow=classic;html=1;rounded=0;exitX=0;exitY=0.75;exitDx=0;exitDy=0;entryX=1;entryY=0.5;entryDx=0;entryDy=0;" edge="1" parent="1" source="0M9UcQBWbqOTrujKgAg9-62" target="0M9UcQBWbqOTrujKgAg9-74">
          <mxGeometry relative="1" as="geometry">
            <mxPoint x="460" y="1570" as="sourcePoint" />
            <mxPoint x="560" y="1570" as="targetPoint" />
          </mxGeometry>
        </mxCell>
        <mxCell id="0M9UcQBWbqOTrujKgAg9-87" value="Produk" style="edgeLabel;resizable=0;html=1;align=center;verticalAlign=middle;" connectable="0" vertex="1" parent="0M9UcQBWbqOTrujKgAg9-86">
          <mxGeometry relative="1" as="geometry">
            <mxPoint y="10" as="offset" />
          </mxGeometry>
        </mxCell>
        <mxCell id="0M9UcQBWbqOTrujKgAg9-88" value="&lt;div&gt;3&lt;/div&gt;&lt;div&gt;&lt;br&gt;&lt;/div&gt;&lt;div&gt;Menampilkan Detail Produk&lt;br&gt;&lt;/div&gt;" style="shape=ellipse;html=1;dashed=0;whiteSpace=wrap;perimeter=ellipsePerimeter;" vertex="1" parent="1">
          <mxGeometry x="400" y="1390" width="100" height="100" as="geometry" />
        </mxCell>
        <mxCell id="0M9UcQBWbqOTrujKgAg9-89" value="" style="endArrow=classic;html=1;rounded=0;exitX=0.25;exitY=0;exitDx=0;exitDy=0;entryX=1;entryY=0.5;entryDx=0;entryDy=0;" edge="1" parent="1" source="0M9UcQBWbqOTrujKgAg9-62" target="0M9UcQBWbqOTrujKgAg9-88">
          <mxGeometry relative="1" as="geometry">
            <mxPoint x="530" y="1460" as="sourcePoint" />
            <mxPoint x="630" y="1460" as="targetPoint" />
            <Array as="points">
              <mxPoint x="685" y="1440" />
            </Array>
          </mxGeometry>
        </mxCell>
        <mxCell id="0M9UcQBWbqOTrujKgAg9-90" value="Produk" style="edgeLabel;resizable=0;html=1;align=center;verticalAlign=middle;" connectable="0" vertex="1" parent="0M9UcQBWbqOTrujKgAg9-89">
          <mxGeometry relative="1" as="geometry">
            <mxPoint x="-62" y="-10" as="offset" />
          </mxGeometry>
        </mxCell>
        <mxCell id="0M9UcQBWbqOTrujKgAg9-91" value="" style="endArrow=classic;html=1;rounded=0;entryX=0.75;entryY=0;entryDx=0;entryDy=0;exitX=0;exitY=0.5;exitDx=0;exitDy=0;" edge="1" parent="1" source="0M9UcQBWbqOTrujKgAg9-88" target="0M9UcQBWbqOTrujKgAg9-58">
          <mxGeometry relative="1" as="geometry">
            <mxPoint x="280" y="1490" as="sourcePoint" />
            <mxPoint x="380" y="1490" as="targetPoint" />
            <Array as="points">
              <mxPoint x="205" y="1440" />
            </Array>
          </mxGeometry>
        </mxCell>
        <mxCell id="0M9UcQBWbqOTrujKgAg9-92" value="Detail Produk" style="edgeLabel;resizable=0;html=1;align=center;verticalAlign=middle;" connectable="0" vertex="1" parent="0M9UcQBWbqOTrujKgAg9-91">
          <mxGeometry relative="1" as="geometry">
            <mxPoint x="60" y="-10" as="offset" />
          </mxGeometry>
        </mxCell>
        <mxCell id="0M9UcQBWbqOTrujKgAg9-94" value="Customer" style="html=1;dashed=0;whiteSpace=wrap;shape=partialRectangle;right=0;left=0;" vertex="1" parent="1">
          <mxGeometry x="80" y="1330" width="110" height="40" as="geometry" />
        </mxCell>
        <mxCell id="0M9UcQBWbqOTrujKgAg9-95" value="" style="endArrow=classic;html=1;rounded=0;exitX=0.25;exitY=0;exitDx=0;exitDy=0;entryX=0.5;entryY=1;entryDx=0;entryDy=0;" edge="1" parent="1" source="0M9UcQBWbqOTrujKgAg9-58" target="0M9UcQBWbqOTrujKgAg9-94">
          <mxGeometry relative="1" as="geometry">
            <mxPoint x="460" y="1510" as="sourcePoint" />
            <mxPoint x="140" y="1390" as="targetPoint" />
          </mxGeometry>
        </mxCell>
        <mxCell id="0M9UcQBWbqOTrujKgAg9-96" value="Data Customer" style="edgeLabel;resizable=0;html=1;align=center;verticalAlign=middle;" connectable="0" vertex="1" parent="0M9UcQBWbqOTrujKgAg9-95">
          <mxGeometry relative="1" as="geometry" />
        </mxCell>
        <mxCell id="0M9UcQBWbqOTrujKgAg9-97" value="&lt;div&gt;4&lt;/div&gt;&lt;div&gt;&lt;br&gt;&lt;/div&gt;&lt;div&gt;Mencatat Pembelian&lt;br&gt;&lt;/div&gt;" style="shape=ellipse;html=1;dashed=0;whiteSpace=wrap;perimeter=ellipsePerimeter;" vertex="1" parent="1">
          <mxGeometry x="400" y="1230" width="100" height="100" as="geometry" />
        </mxCell>
        <mxCell id="0M9UcQBWbqOTrujKgAg9-98" value="" style="endArrow=classic;html=1;rounded=0;exitX=0.5;exitY=0;exitDx=0;exitDy=0;entryX=0;entryY=0.5;entryDx=0;entryDy=0;" edge="1" parent="1" source="0M9UcQBWbqOTrujKgAg9-94" target="0M9UcQBWbqOTrujKgAg9-97">
          <mxGeometry relative="1" as="geometry">
            <mxPoint x="360" y="1370" as="sourcePoint" />
            <mxPoint x="460" y="1370" as="targetPoint" />
            <Array as="points">
              <mxPoint x="135" y="1280" />
            </Array>
          </mxGeometry>
        </mxCell>
        <mxCell id="0M9UcQBWbqOTrujKgAg9-99" value="Pembelian" style="edgeLabel;resizable=0;html=1;align=center;verticalAlign=middle;" connectable="0" vertex="1" parent="0M9UcQBWbqOTrujKgAg9-98">
          <mxGeometry relative="1" as="geometry">
            <mxPoint x="38" y="-10" as="offset" />
          </mxGeometry>
        </mxCell>
        <mxCell id="0M9UcQBWbqOTrujKgAg9-100" value="Transaksi" style="html=1;dashed=0;whiteSpace=wrap;shape=partialRectangle;right=0;left=0;" vertex="1" parent="1">
          <mxGeometry x="650" y="1260" width="110" height="40" as="geometry" />
        </mxCell>
        <mxCell id="0M9UcQBWbqOTrujKgAg9-101" value="" style="endArrow=classic;html=1;rounded=0;exitX=1;exitY=0.5;exitDx=0;exitDy=0;entryX=0;entryY=0.5;entryDx=0;entryDy=0;" edge="1" parent="1" source="0M9UcQBWbqOTrujKgAg9-97" target="0M9UcQBWbqOTrujKgAg9-100">
          <mxGeometry relative="1" as="geometry">
            <mxPoint x="700" y="1460" as="sourcePoint" />
            <mxPoint x="800" y="1460" as="targetPoint" />
          </mxGeometry>
        </mxCell>
        <mxCell id="0M9UcQBWbqOTrujKgAg9-102" value="Pembayaran" style="edgeLabel;resizable=0;html=1;align=center;verticalAlign=middle;" connectable="0" vertex="1" parent="0M9UcQBWbqOTrujKgAg9-101">
          <mxGeometry relative="1" as="geometry">
            <mxPoint y="-10" as="offset" />
          </mxGeometry>
        </mxCell>
        <mxCell id="0M9UcQBWbqOTrujKgAg9-103" value="&lt;div&gt;5&lt;/div&gt;&lt;div&gt;&lt;br&gt;&lt;/div&gt;&lt;div&gt;Mengolah Data Transaksi Pembelian&lt;br&gt;&lt;/div&gt;" style="shape=ellipse;html=1;dashed=0;whiteSpace=wrap;perimeter=ellipsePerimeter;" vertex="1" parent="1">
          <mxGeometry x="910" y="1320" width="100" height="100" as="geometry" />
        </mxCell>
        <mxCell id="0M9UcQBWbqOTrujKgAg9-104" value="" style="endArrow=classic;html=1;rounded=0;exitX=1;exitY=0.5;exitDx=0;exitDy=0;entryX=0.5;entryY=0;entryDx=0;entryDy=0;" edge="1" parent="1" source="0M9UcQBWbqOTrujKgAg9-100" target="0M9UcQBWbqOTrujKgAg9-103">
          <mxGeometry relative="1" as="geometry">
            <mxPoint x="770" y="1430" as="sourcePoint" />
            <mxPoint x="870" y="1430" as="targetPoint" />
            <Array as="points">
              <mxPoint x="960" y="1280" />
            </Array>
          </mxGeometry>
        </mxCell>
        <mxCell id="0M9UcQBWbqOTrujKgAg9-105" value="Transaksi Pembelian" style="edgeLabel;resizable=0;html=1;align=center;verticalAlign=middle;" connectable="0" vertex="1" parent="0M9UcQBWbqOTrujKgAg9-104">
          <mxGeometry relative="1" as="geometry">
            <mxPoint x="-20" y="-10" as="offset" />
          </mxGeometry>
        </mxCell>
        <mxCell id="0M9UcQBWbqOTrujKgAg9-106" value="" style="endArrow=classic;html=1;rounded=0;exitX=0;exitY=0.5;exitDx=0;exitDy=0;entryX=0.5;entryY=0;entryDx=0;entryDy=0;" edge="1" parent="1" source="0M9UcQBWbqOTrujKgAg9-103" target="0M9UcQBWbqOTrujKgAg9-60">
          <mxGeometry relative="1" as="geometry">
            <mxPoint x="780" y="1440" as="sourcePoint" />
            <mxPoint x="880" y="1440" as="targetPoint" />
            <Array as="points">
              <mxPoint x="810" y="1370" />
            </Array>
          </mxGeometry>
        </mxCell>
        <mxCell id="0M9UcQBWbqOTrujKgAg9-107" value="Informasi Pembelian" style="edgeLabel;resizable=0;html=1;align=center;verticalAlign=middle;" connectable="0" vertex="1" parent="0M9UcQBWbqOTrujKgAg9-106">
          <mxGeometry relative="1" as="geometry">
            <mxPoint y="-15" as="offset" />
          </mxGeometry>
        </mxCell>
        <mxCell id="0M9UcQBWbqOTrujKgAg9-108" value="" style="endArrow=classic;html=1;rounded=0;exitX=0.5;exitY=1;exitDx=0;exitDy=0;entryX=1;entryY=0.5;entryDx=0;entryDy=0;" edge="1" parent="1" source="0M9UcQBWbqOTrujKgAg9-103" target="0M9UcQBWbqOTrujKgAg9-60">
          <mxGeometry relative="1" as="geometry">
            <mxPoint x="740" y="1490" as="sourcePoint" />
            <mxPoint x="840" y="1490" as="targetPoint" />
            <Array as="points">
              <mxPoint x="960" y="1450" />
              <mxPoint x="960" y="1460" />
            </Array>
          </mxGeometry>
        </mxCell>
        <mxCell id="0M9UcQBWbqOTrujKgAg9-109" value="Detail Transaksi" style="edgeLabel;resizable=0;html=1;align=center;verticalAlign=middle;" connectable="0" vertex="1" parent="0M9UcQBWbqOTrujKgAg9-108">
          <mxGeometry relative="1" as="geometry">
            <mxPoint x="-10" y="10" as="offset" />
          </mxGeometry>
        </mxCell>
        <mxCell id="0M9UcQBWbqOTrujKgAg9-110" value="" style="endArrow=classic;html=1;rounded=0;exitX=1;exitY=0.5;exitDx=0;exitDy=0;entryX=0.25;entryY=1;entryDx=0;entryDy=0;" edge="1" parent="1" source="0M9UcQBWbqOTrujKgAg9-103" target="0M9UcQBWbqOTrujKgAg9-58">
          <mxGeometry relative="1" as="geometry">
            <mxPoint x="790" y="1610" as="sourcePoint" />
            <mxPoint x="890" y="1610" as="targetPoint" />
            <Array as="points">
              <mxPoint x="1040" y="1370" />
              <mxPoint x="1040" y="1830" />
              <mxPoint x="135" y="1830" />
            </Array>
          </mxGeometry>
        </mxCell>
        <mxCell id="0M9UcQBWbqOTrujKgAg9-111" value="Detail Transaksi" style="edgeLabel;resizable=0;html=1;align=center;verticalAlign=middle;" connectable="0" vertex="1" parent="0M9UcQBWbqOTrujKgAg9-110">
          <mxGeometry relative="1" as="geometry">
            <mxPoint x="-172" y="-10" as="offset" />
          </mxGeometry>
        </mxCell>
        <mxCell id="0M9UcQBWbqOTrujKgAg9-112" value="&lt;div&gt;Oktaviana Sadama Nur Azizah&lt;/div&gt;&lt;div&gt;24060121130060&lt;br&gt;&lt;/div&gt;" style="text;html=1;strokeColor=none;fillColor=none;align=center;verticalAlign=middle;whiteSpace=wrap;rounded=0;" vertex="1" parent="1">
          <mxGeometry x="800" y="1680" width="200" height="30" as="geometry" />
        </mxCell>
        <mxCell id="0M9UcQBWbqOTrujKgAg9-113" value="" style="endArrow=classic;html=1;rounded=0;exitX=0.75;exitY=0;exitDx=0;exitDy=0;entryX=0.5;entryY=1;entryDx=0;entryDy=0;" edge="1" parent="1" source="0M9UcQBWbqOTrujKgAg9-62" target="0M9UcQBWbqOTrujKgAg9-97">
          <mxGeometry relative="1" as="geometry">
            <mxPoint x="590" y="1490" as="sourcePoint" />
            <mxPoint x="690" y="1490" as="targetPoint" />
            <Array as="points">
              <mxPoint x="735" y="1350" />
              <mxPoint x="450" y="1350" />
            </Array>
          </mxGeometry>
        </mxCell>
        <mxCell id="0M9UcQBWbqOTrujKgAg9-114" value="Detail Produk" style="edgeLabel;resizable=0;html=1;align=center;verticalAlign=middle;" connectable="0" vertex="1" parent="0M9UcQBWbqOTrujKgAg9-113">
          <mxGeometry relative="1" as="geometry">
            <mxPoint x="-73" y="-10" as="offset" />
          </mxGeometry>
        </mxCell>
        <mxCell id="0M9UcQBWbqOTrujKgAg9-115" value="Customer" style="html=1;dashed=0;whiteSpace=wrap;" vertex="1" parent="1">
          <mxGeometry x="100" y="2180" width="140" height="40" as="geometry" />
        </mxCell>
        <mxCell id="0M9UcQBWbqOTrujKgAg9-116" value="&lt;div&gt;4.1&lt;br&gt;&lt;/div&gt;&lt;div&gt;&lt;br&gt;&lt;/div&gt;Memeriksa Data Customer" style="shape=ellipse;html=1;dashed=0;whiteSpace=wrap;perimeter=ellipsePerimeter;" vertex="1" parent="1">
          <mxGeometry x="120" y="1960" width="100" height="100" as="geometry" />
        </mxCell>
        <mxCell id="0M9UcQBWbqOTrujKgAg9-117" value="" style="endArrow=classic;html=1;rounded=0;exitX=0.5;exitY=0;exitDx=0;exitDy=0;" edge="1" parent="1" source="0M9UcQBWbqOTrujKgAg9-115" target="0M9UcQBWbqOTrujKgAg9-116">
          <mxGeometry relative="1" as="geometry">
            <mxPoint x="10" y="2170" as="sourcePoint" />
            <mxPoint x="110" y="2170" as="targetPoint" />
          </mxGeometry>
        </mxCell>
        <mxCell id="0M9UcQBWbqOTrujKgAg9-118" value="Data Customer" style="edgeLabel;resizable=0;html=1;align=center;verticalAlign=middle;" connectable="0" vertex="1" parent="0M9UcQBWbqOTrujKgAg9-117">
          <mxGeometry relative="1" as="geometry" />
        </mxCell>
        <mxCell id="0M9UcQBWbqOTrujKgAg9-119" value="&lt;div&gt;4.2&lt;/div&gt;&lt;div&gt;&lt;br&gt;&lt;/div&gt;&lt;div&gt;Memeriksa Data Produk&lt;br&gt;&lt;/div&gt;" style="shape=ellipse;html=1;dashed=0;whiteSpace=wrap;perimeter=ellipsePerimeter;" vertex="1" parent="1">
          <mxGeometry x="120" y="2340" width="100" height="100" as="geometry" />
        </mxCell>
        <mxCell id="0M9UcQBWbqOTrujKgAg9-120" value="" style="endArrow=classic;html=1;rounded=0;exitX=0.5;exitY=1;exitDx=0;exitDy=0;entryX=0.5;entryY=0;entryDx=0;entryDy=0;" edge="1" parent="1" source="0M9UcQBWbqOTrujKgAg9-115" target="0M9UcQBWbqOTrujKgAg9-119">
          <mxGeometry relative="1" as="geometry">
            <mxPoint x="270" y="2300" as="sourcePoint" />
            <mxPoint x="370" y="2300" as="targetPoint" />
          </mxGeometry>
        </mxCell>
        <mxCell id="0M9UcQBWbqOTrujKgAg9-121" value="Pembelian Produk" style="edgeLabel;resizable=0;html=1;align=center;verticalAlign=middle;" connectable="0" vertex="1" parent="0M9UcQBWbqOTrujKgAg9-120">
          <mxGeometry relative="1" as="geometry" />
        </mxCell>
        <mxCell id="0M9UcQBWbqOTrujKgAg9-122" value="Produk" style="html=1;dashed=0;whiteSpace=wrap;shape=partialRectangle;right=0;left=0;" vertex="1" parent="1">
          <mxGeometry x="410" y="2370" width="100" height="40" as="geometry" />
        </mxCell>
        <mxCell id="0M9UcQBWbqOTrujKgAg9-123" value="" style="endArrow=classic;html=1;rounded=0;entryX=0;entryY=0.25;entryDx=0;entryDy=0;exitX=0.988;exitY=0.395;exitDx=0;exitDy=0;exitPerimeter=0;" edge="1" parent="1" source="0M9UcQBWbqOTrujKgAg9-119" target="0M9UcQBWbqOTrujKgAg9-122">
          <mxGeometry relative="1" as="geometry">
            <mxPoint x="230" y="2390" as="sourcePoint" />
            <mxPoint x="410" y="2390" as="targetPoint" />
          </mxGeometry>
        </mxCell>
        <mxCell id="0M9UcQBWbqOTrujKgAg9-124" value="Data Produk" style="edgeLabel;resizable=0;html=1;align=center;verticalAlign=middle;" connectable="0" vertex="1" parent="0M9UcQBWbqOTrujKgAg9-123">
          <mxGeometry relative="1" as="geometry">
            <mxPoint y="-10" as="offset" />
          </mxGeometry>
        </mxCell>
        <mxCell id="0M9UcQBWbqOTrujKgAg9-125" value="" style="endArrow=classic;html=1;rounded=0;exitX=0;exitY=0.75;exitDx=0;exitDy=0;entryX=0.991;entryY=0.593;entryDx=0;entryDy=0;entryPerimeter=0;" edge="1" parent="1" source="0M9UcQBWbqOTrujKgAg9-122" target="0M9UcQBWbqOTrujKgAg9-119">
          <mxGeometry relative="1" as="geometry">
            <mxPoint x="310" y="2390" as="sourcePoint" />
            <mxPoint x="230" y="2400" as="targetPoint" />
          </mxGeometry>
        </mxCell>
        <mxCell id="0M9UcQBWbqOTrujKgAg9-126" value="Data Produk" style="edgeLabel;resizable=0;html=1;align=center;verticalAlign=middle;" connectable="0" vertex="1" parent="0M9UcQBWbqOTrujKgAg9-125">
          <mxGeometry relative="1" as="geometry">
            <mxPoint y="10" as="offset" />
          </mxGeometry>
        </mxCell>
        <mxCell id="0M9UcQBWbqOTrujKgAg9-127" value="Customer" style="html=1;dashed=0;whiteSpace=wrap;shape=partialRectangle;right=0;left=0;" vertex="1" parent="1">
          <mxGeometry x="405" y="1990" width="110" height="40" as="geometry" />
        </mxCell>
        <mxCell id="0M9UcQBWbqOTrujKgAg9-128" value="" style="endArrow=classic;html=1;rounded=0;exitX=0.987;exitY=0.4;exitDx=0;exitDy=0;exitPerimeter=0;entryX=0;entryY=0.25;entryDx=0;entryDy=0;" edge="1" parent="1" source="0M9UcQBWbqOTrujKgAg9-116" target="0M9UcQBWbqOTrujKgAg9-127">
          <mxGeometry relative="1" as="geometry">
            <mxPoint x="430" y="2170" as="sourcePoint" />
            <mxPoint x="530" y="2170" as="targetPoint" />
          </mxGeometry>
        </mxCell>
        <mxCell id="0M9UcQBWbqOTrujKgAg9-129" value="Data Customer" style="edgeLabel;resizable=0;html=1;align=center;verticalAlign=middle;" connectable="0" vertex="1" parent="0M9UcQBWbqOTrujKgAg9-128">
          <mxGeometry relative="1" as="geometry">
            <mxPoint y="-10" as="offset" />
          </mxGeometry>
        </mxCell>
        <mxCell id="0M9UcQBWbqOTrujKgAg9-130" value="" style="endArrow=classic;html=1;rounded=0;exitX=0;exitY=0.75;exitDx=0;exitDy=0;entryX=0.989;entryY=0.597;entryDx=0;entryDy=0;entryPerimeter=0;" edge="1" parent="1" source="0M9UcQBWbqOTrujKgAg9-127" target="0M9UcQBWbqOTrujKgAg9-116">
          <mxGeometry relative="1" as="geometry">
            <mxPoint x="260" y="2010" as="sourcePoint" />
            <mxPoint x="230" y="2030" as="targetPoint" />
          </mxGeometry>
        </mxCell>
        <mxCell id="0M9UcQBWbqOTrujKgAg9-131" value="Data Customer" style="edgeLabel;resizable=0;html=1;align=center;verticalAlign=middle;" connectable="0" vertex="1" parent="0M9UcQBWbqOTrujKgAg9-130">
          <mxGeometry relative="1" as="geometry">
            <mxPoint y="10" as="offset" />
          </mxGeometry>
        </mxCell>
        <mxCell id="0M9UcQBWbqOTrujKgAg9-132" value="&lt;div&gt;4.3&lt;/div&gt;&lt;div&gt;&lt;br&gt;&lt;/div&gt;&lt;div&gt;Mencatat Data Transakasi Pembelian&lt;br&gt;&lt;/div&gt;" style="shape=ellipse;html=1;dashed=0;whiteSpace=wrap;perimeter=ellipsePerimeter;" vertex="1" parent="1">
          <mxGeometry x="410" y="2150" width="100" height="100" as="geometry" />
        </mxCell>
        <mxCell id="0M9UcQBWbqOTrujKgAg9-133" value="" style="endArrow=classic;html=1;rounded=0;exitX=0.5;exitY=1;exitDx=0;exitDy=0;entryX=0.5;entryY=0;entryDx=0;entryDy=0;" edge="1" parent="1" source="0M9UcQBWbqOTrujKgAg9-127" target="0M9UcQBWbqOTrujKgAg9-132">
          <mxGeometry relative="1" as="geometry">
            <mxPoint x="490" y="2130" as="sourcePoint" />
            <mxPoint x="590" y="2130" as="targetPoint" />
          </mxGeometry>
        </mxCell>
        <mxCell id="0M9UcQBWbqOTrujKgAg9-134" value="Data Customer" style="edgeLabel;resizable=0;html=1;align=center;verticalAlign=middle;" connectable="0" vertex="1" parent="0M9UcQBWbqOTrujKgAg9-133">
          <mxGeometry relative="1" as="geometry" />
        </mxCell>
        <mxCell id="0M9UcQBWbqOTrujKgAg9-135" value="" style="endArrow=classic;html=1;rounded=0;exitX=0.5;exitY=0;exitDx=0;exitDy=0;entryX=0.5;entryY=1;entryDx=0;entryDy=0;" edge="1" parent="1" source="0M9UcQBWbqOTrujKgAg9-122" target="0M9UcQBWbqOTrujKgAg9-132">
          <mxGeometry relative="1" as="geometry">
            <mxPoint x="490" y="2240" as="sourcePoint" />
            <mxPoint x="590" y="2240" as="targetPoint" />
          </mxGeometry>
        </mxCell>
        <mxCell id="0M9UcQBWbqOTrujKgAg9-136" value="Data Produk" style="edgeLabel;resizable=0;html=1;align=center;verticalAlign=middle;" connectable="0" vertex="1" parent="0M9UcQBWbqOTrujKgAg9-135">
          <mxGeometry relative="1" as="geometry" />
        </mxCell>
        <mxCell id="0M9UcQBWbqOTrujKgAg9-137" value="" style="endArrow=classic;html=1;rounded=0;exitX=0;exitY=0.5;exitDx=0;exitDy=0;entryX=1;entryY=0.5;entryDx=0;entryDy=0;" edge="1" parent="1" source="0M9UcQBWbqOTrujKgAg9-132" target="0M9UcQBWbqOTrujKgAg9-115">
          <mxGeometry relative="1" as="geometry">
            <mxPoint x="490" y="2140" as="sourcePoint" />
            <mxPoint x="590" y="2140" as="targetPoint" />
          </mxGeometry>
        </mxCell>
        <mxCell id="0M9UcQBWbqOTrujKgAg9-138" value="&lt;div&gt;Detail Transaksi&lt;/div&gt;&lt;div&gt;Pembelian&lt;br&gt;&lt;/div&gt;" style="edgeLabel;resizable=0;html=1;align=center;verticalAlign=middle;" connectable="0" vertex="1" parent="0M9UcQBWbqOTrujKgAg9-137">
          <mxGeometry relative="1" as="geometry" />
        </mxCell>
        <mxCell id="0M9UcQBWbqOTrujKgAg9-139" value="Transaksi" style="html=1;dashed=0;whiteSpace=wrap;shape=partialRectangle;right=0;left=0;" vertex="1" parent="1">
          <mxGeometry x="630" y="2180" width="110" height="40" as="geometry" />
        </mxCell>
        <mxCell id="0M9UcQBWbqOTrujKgAg9-140" value="" style="endArrow=classic;html=1;rounded=0;exitX=1;exitY=0.5;exitDx=0;exitDy=0;entryX=0;entryY=0.5;entryDx=0;entryDy=0;" edge="1" parent="1" source="0M9UcQBWbqOTrujKgAg9-132" target="0M9UcQBWbqOTrujKgAg9-139">
          <mxGeometry relative="1" as="geometry">
            <mxPoint x="580" y="2220" as="sourcePoint" />
            <mxPoint x="680" y="2220" as="targetPoint" />
          </mxGeometry>
        </mxCell>
        <mxCell id="0M9UcQBWbqOTrujKgAg9-141" value="Data Transaksi" style="edgeLabel;resizable=0;html=1;align=center;verticalAlign=middle;" connectable="0" vertex="1" parent="0M9UcQBWbqOTrujKgAg9-140">
          <mxGeometry relative="1" as="geometry" />
        </mxCell>
        <mxCell id="0M9UcQBWbqOTrujKgAg9-144" value="&lt;div&gt;Oktaviana Sadama Nur Azizah&lt;/div&gt;&lt;div&gt;24060121130060&lt;br&gt;&lt;/div&gt;" style="text;html=1;strokeColor=none;fillColor=none;align=center;verticalAlign=middle;whiteSpace=wrap;rounded=0;" vertex="1" parent="1">
          <mxGeometry x="550" y="2080" width="190" height="30" as="geometry" />
        </mxCell>
      </root>
    </mxGraphModel>
  </diagram>
</mxfile>
